# xmcd CD database file
#
# Track frame offsets:
#	150
#	15866
#	29441
#	49626
#	67697
#	82955
#	100201
#	115404
#	130542
#	144993
#
# Disc length: 2118 seconds
#
# Revision: 0
# Processed by: cddbd v1.5.1PL2 Copyright (c) Steve Scherf et al.
# Submitted via: CDex 1.51
#
DISCID=6e08440a
DTITLE=ROD STEWART - The great American Songbook CD 3
DYEAR=2004
DGENRE=Rhythmic Soul
TTITLE0=Embraceable you
TTITLE1=For sentimental reasons
TTITLE2=Blue moon
TTITLE3=What a wonderful world
TTITLE4=Stardust
TTITLE5=Manhatan
TTITLE6=?s wonderful
TTITLE7=isn't it romantic
TTITLE8=I can't get started
TTITLE9=But not for me
EXTD=YEAR: 2004
EXTT0=
EXTT1=
EXTT2=
EXTT3=
EXTT4=
EXTT5=
EXTT6=
EXTT7=
EXTT8=
EXTT9=
PLAYORDER=
